# xmcd
#
# Track frame offsets: 
#        150
#        12258
#        24368
#        41495
#        59976
#        75304
#        94200
#        105478
#        118619
#        131890
#        145610
#        163323
#        183878
#
# Disc length: 2632 seconds
#
# Revision: 0
# Processed by: cddbd v1.5.2PL0 Copyright (c) Steve Scherf et al.
# Submitted via: ExactAudioCopyFreeDBPlugin 1.0
#
DISCID=a90a460d
DTITLE=Candye Kane - Coming Out Swingin'
DYEAR=2013
DGENRE=Blues
TTITLE0=Coming Out Swingin'
TTITLE1=Rock Me To Sleep
TTITLE2=I'm The Reason Why You Drink
TTITLE3=When Tomorrow Comes
TTITLE4=Rise Up!
TTITLE5=Invisible Woman
TTITLE6=You Ain't All That
TTITLE7=I Wanted To Walk (Right Thru That Door)
TTITLE8=Darling Baby
TTITLE9=Barbed Wire Mouth
TTITLE10=What Love Can Do
TTITLE11=Au Revoir Y'All
TTITLE12=Marijuana Boogie
EXTD=
EXTT0=
EXTT1=
EXTT2=
EXTT3=
EXTT4=
EXTT5=
EXTT6=
EXTT7=
EXTT8=
EXTT9=
EXTT10=
EXTT11=
EXTT12=
PLAYORDER=
